<svg width="22" height="18" viewBox="0 0 22 18" fill="none" xmlns="http://www.w3.org/2000/svg">
<path d="M18.1999 10.6857C19.4672 11.6326 20.5999 14.0167 20.5999 15.4857C20.5999 15.9433 20.266 16.3143 19.8541 16.3143H19.3999M14.5999 6.8045C15.4197 6.33025 15.9713 5.44383 15.9713 4.42859C15.9713 3.41334 15.4197 2.52693 14.5999 2.05268M2.14567 16.3143H15.2827C15.6946 16.3143 16.0285 15.9433 16.0285 15.4857C16.0285 12.6091 13.6252 10.2771 8.71419 10.2771C3.80317 10.2771 1.3999 12.6091 1.3999 15.4857C1.3999 15.9433 1.7338 16.3143 2.14567 16.3143ZM11.457 4.42859C11.457 5.94343 10.229 7.17144 8.71419 7.17144C7.19935 7.17144 5.97133 5.94343 5.97133 4.42859C5.97133 2.91375 7.19935 1.68573 8.71419 1.68573C10.229 1.68573 11.457 2.91375 11.457 4.42859Z" stroke="black" stroke-width="2" stroke-linecap="round"/>
</svg>
